<svg width="52" height="36" viewBox="0 0 72 56" fill="none" xmlns="http://www.w3.org/2000/svg">
<path fill-rule="evenodd" clip-rule="evenodd" d="M62.8427 55.2C66.7185 49.7909 69 43.1619 69 36C69 17.7746 54.2254 3 36 3C17.7746 3 3 17.7746 3 36C3 43.1619 5.28149 49.7909 9.15734 55.2H5.54187C2.03156 49.643 0 43.0588 0 36C0 16.1177 16.1177 0 36 0C55.8823 0 72 16.1177 72 36C72 43.0588 69.9684 49.643 66.4581 55.2H62.8427Z" fill="url(#paint0_linear)"/>
<mask id="mask0" mask-type="alpha" maskUnits="userSpaceOnUse" x="9" y="20" width="55" height="32">
<line x1="16.125" y1="31.35" x2="16.125" y2="38.475" stroke="black" stroke-width="3" stroke-linecap="round"/>
<line x1="56.625" y1="31.35" x2="56.625" y2="38.475" stroke="black" stroke-width="3" stroke-linecap="round"/>
<line x1="22.875" y1="31.35" x2="22.875" y2="38.475" stroke="black" stroke-width="3" stroke-linecap="round"/>
<line x1="49.875" y1="31.35" x2="49.875" y2="38.475" stroke="black" stroke-width="3" stroke-linecap="round"/>
<line x1="29.625" y1="27.975" x2="29.625" y2="42.975" stroke="black" stroke-width="3" stroke-linecap="round"/>
<line x1="10.5" y1="27.975" x2="10.5" y2="42.975" stroke="black" stroke-width="3" stroke-linecap="round"/>
<line x1="43.125" y1="27.975" x2="43.125" y2="42.975" stroke="black" stroke-width="3" stroke-linecap="round"/>
<line x1="62.25" y1="27.975" x2="62.25" y2="42.975" stroke="black" stroke-width="3" stroke-linecap="round"/>
<line x1="36.375" y1="21.75" x2="36.375" y2="50.25" stroke="black" stroke-width="3" stroke-linecap="round"/>
</mask>
<g mask="url(#mask0)">
<rect x="1.125" y="18" width="70.875" height="34.875" fill="url(#paint1_linear)"/>
</g>
<defs>
<linearGradient id="paint0_linear" x1="36" y1="0" x2="36" y2="55.2" gradientUnits="userSpaceOnUse">
<stop stop-color="#563494"/>
<stop offset="1" stop-color="#CC5ADC"/>
</linearGradient>
<linearGradient id="paint1_linear" x1="36.5625" y1="18" x2="36.5625" y2="52.875" gradientUnits="userSpaceOnUse">
<stop stop-color="#573495"/>
<stop offset="1" stop-color="#C758D9"/>
</linearGradient>
</defs>
</svg>
